<svg width="14" height="52" viewBox="0 0 14 52" fill="none" xmlns="http://www.w3.org/2000/svg">
<path d="M7.61146 24.97L4.91917 21.2197C4.70883 20.9268 4.36809 20.9268 4.15775 21.2197C3.94742 21.5127 3.94742 21.9874 4.15775 22.2804L6.4706 25.4997L4.15859 28.7202C3.94826 29.0132 3.94826 29.4879 4.15859 29.7808C4.26342 29.9273 4.40107 30 4.53888 30C4.67669 30 4.8145 29.9268 4.9195 29.7803L7.61179 26.03C7.82179 25.7364 7.82179 25.263 7.61146 24.97ZM10.8422 24.97L8.14991 21.2197C7.93958 20.9268 7.59884 20.9268 7.3885 21.2197C7.17817 21.5127 7.17817 21.9874 7.3885 22.2804L9.70135 25.4997L7.38934 28.7202C7.17901 29.0132 7.17901 29.4879 7.38934 29.7808C7.49367 29.9273 7.63165 30 7.76963 30C7.90761 30 8.04525 29.9268 8.15025 29.7803L10.8425 26.03C11.0525 25.7364 11.0525 25.263 10.8422 24.97Z" fill="white"/>
</svg>
